<svg width="74" height="70" viewBox="0 0 74 70" fill="none" xmlns="http://www.w3.org/2000/svg">
<path d="M7.33333 0C3.26333 0 0 3.26333 0 7.33333V44C0 45.9449 0.772617 47.8102 2.14788 49.1855C3.52315 50.5607 5.38841 51.3333 7.33333 51.3333H36.6667V69.6667L47.6667 58.6667L58.6667 69.6667V51.3333H66C67.9449 51.3333 69.8102 50.5607 71.1854 49.1855C72.5607 47.8102 73.3333 45.9449 73.3333 44V7.33333C73.3333 5.38841 72.5607 3.52315 71.1854 2.14788C69.8102 0.772617 67.9449 0 66 0H7.33333ZM36.6667 7.33333L47.6667 14.6667L58.6667 7.33333V20.1667L69.6667 25.6667L58.6667 31.1667V44L47.6667 36.6667L36.6667 44V31.1667L25.6667 25.6667L36.6667 20.1667V7.33333ZM7.33333 7.33333H25.6667V14.6667H7.33333V7.33333ZM7.33333 22H18.3333V29.3333H7.33333V22ZM7.33333 36.6667H25.6667V44H7.33333V36.6667Z" fill="url(#paint0_linear_3106_2469)"/>
<defs>
<linearGradient id="paint0_linear_3106_2469" x1="0" y1="34.8333" x2="73.3333" y2="34.8333" gradientUnits="userSpaceOnUse">
<stop stop-color="#1A2856"/>
<stop offset="1" stop-color="#334EA9"/>
</linearGradient>
</defs>
</svg>
